<mxfile host="65bd71144e">
    <diagram id="U-wq7cFo8mgGFpZrhdLU" name="Page-1">
        <mxGraphModel dx="1011" dy="775" grid="1" gridSize="10" guides="1" tooltips="1" connect="1" arrows="1" fold="1" page="1" pageScale="1" pageWidth="827" pageHeight="1169" math="0" shadow="0">
            <root>
                <mxCell id="0"/>
                <mxCell id="1" parent="0"/>
                <mxCell id="q6qAJDM0Yv2ca2bz8RKR-1" value="User" style="swimlane;" parent="1" vertex="1">
                    <mxGeometry x="40" y="60" width="200" height="280" as="geometry">
                        <mxRectangle x="40" y="60" width="130" height="23" as="alternateBounds"/>
                    </mxGeometry>
                </mxCell>
                <mxCell id="q6qAJDM0Yv2ca2bz8RKR-3" value="name: String" style="text;strokeColor=none;fillColor=none;align=left;verticalAlign=top;spacingLeft=4;spacingRight=4;overflow=hidden;rotatable=0;points=[[0,0.5],[1,0.5]];portConstraint=eastwest;" parent="q6qAJDM0Yv2ca2bz8RKR-1" vertex="1">
                    <mxGeometry y="30" width="200" height="26" as="geometry"/>
                </mxCell>
                <mxCell id="q6qAJDM0Yv2ca2bz8RKR-4" value="lastName: String" style="text;strokeColor=none;fillColor=none;align=left;verticalAlign=top;spacingLeft=4;spacingRight=4;overflow=hidden;rotatable=0;points=[[0,0.5],[1,0.5]];portConstraint=eastwest;" parent="q6qAJDM0Yv2ca2bz8RKR-1" vertex="1">
                    <mxGeometry y="56" width="200" height="26" as="geometry"/>
                </mxCell>
                <mxCell id="q6qAJDM0Yv2ca2bz8RKR-5" value="email: String" style="text;strokeColor=none;fillColor=none;align=left;verticalAlign=top;spacingLeft=4;spacingRight=4;overflow=hidden;rotatable=0;points=[[0,0.5],[1,0.5]];portConstraint=eastwest;" parent="q6qAJDM0Yv2ca2bz8RKR-1" vertex="1">
                    <mxGeometry y="82" width="200" height="26" as="geometry"/>
                </mxCell>
                <mxCell id="q6qAJDM0Yv2ca2bz8RKR-14" value="bio: String" style="text;strokeColor=none;fillColor=none;align=left;verticalAlign=top;spacingLeft=4;spacingRight=4;overflow=hidden;rotatable=0;points=[[0,0.5],[1,0.5]];portConstraint=eastwest;" parent="q6qAJDM0Yv2ca2bz8RKR-1" vertex="1">
                    <mxGeometry y="134" width="200" height="26" as="geometry"/>
                </mxCell>
                <mxCell id="q6qAJDM0Yv2ca2bz8RKR-15" value="skills" style="swimlane;fontStyle=1;childLayout=stackLayout;horizontal=1;startSize=26;horizontalStack=0;resizeParent=1;resizeParentMax=0;resizeLast=0;collapsible=1;marginBottom=0;" parent="q6qAJDM0Yv2ca2bz8RKR-1" vertex="1">
                    <mxGeometry x="10" y="186" width="180" height="78" as="geometry"/>
                </mxCell>
                <mxCell id="q6qAJDM0Yv2ca2bz8RKR-16" value="primarySkills: String[]" style="text;strokeColor=none;fillColor=none;align=left;verticalAlign=top;spacingLeft=4;spacingRight=4;overflow=hidden;rotatable=0;points=[[0,0.5],[1,0.5]];portConstraint=eastwest;" parent="q6qAJDM0Yv2ca2bz8RKR-15" vertex="1">
                    <mxGeometry y="26" width="180" height="26" as="geometry"/>
                </mxCell>
                <mxCell id="q6qAJDM0Yv2ca2bz8RKR-17" value="secondarySkills: String[]" style="text;strokeColor=none;fillColor=none;align=left;verticalAlign=top;spacingLeft=4;spacingRight=4;overflow=hidden;rotatable=0;points=[[0,0.5],[1,0.5]];portConstraint=eastwest;" parent="q6qAJDM0Yv2ca2bz8RKR-15" vertex="1">
                    <mxGeometry y="52" width="180" height="26" as="geometry"/>
                </mxCell>
                <mxCell id="q6qAJDM0Yv2ca2bz8RKR-20" value="jobtitle: String" style="text;strokeColor=none;fillColor=none;align=left;verticalAlign=top;spacingLeft=4;spacingRight=4;overflow=hidden;rotatable=0;points=[[0,0.5],[1,0.5]];portConstraint=eastwest;" parent="q6qAJDM0Yv2ca2bz8RKR-1" vertex="1">
                    <mxGeometry y="108" width="200" height="26" as="geometry"/>
                </mxCell>
                <mxCell id="q6qAJDM0Yv2ca2bz8RKR-21" value="isConfluenceConnected: Boolean" style="text;strokeColor=none;fillColor=none;align=left;verticalAlign=top;spacingLeft=4;spacingRight=4;overflow=hidden;rotatable=0;points=[[0,0.5],[1,0.5]];portConstraint=eastwest;" parent="q6qAJDM0Yv2ca2bz8RKR-1" vertex="1">
                    <mxGeometry y="160" width="200" height="26" as="geometry"/>
                </mxCell>
                <mxCell id="q6qAJDM0Yv2ca2bz8RKR-6" value="Notes" style="swimlane;" parent="1" vertex="1">
                    <mxGeometry x="40" y="410" width="200" height="90" as="geometry">
                        <mxRectangle x="40" y="60" width="130" height="23" as="alternateBounds"/>
                    </mxGeometry>
                </mxCell>
                <mxCell id="q6qAJDM0Yv2ca2bz8RKR-7" value="userId: string" style="text;strokeColor=none;fillColor=none;align=left;verticalAlign=top;spacingLeft=4;spacingRight=4;overflow=hidden;rotatable=0;points=[[0,0.5],[1,0.5]];portConstraint=eastwest;" parent="q6qAJDM0Yv2ca2bz8RKR-6" vertex="1">
                    <mxGeometry y="30" width="200" height="26" as="geometry"/>
                </mxCell>
                <mxCell id="q6qAJDM0Yv2ca2bz8RKR-9" value="data: string" style="text;strokeColor=none;fillColor=none;align=left;verticalAlign=top;spacingLeft=4;spacingRight=4;overflow=hidden;rotatable=0;points=[[0,0.5],[1,0.5]];portConstraint=eastwest;" parent="q6qAJDM0Yv2ca2bz8RKR-6" vertex="1">
                    <mxGeometry y="56" width="200" height="26" as="geometry"/>
                </mxCell>
                <mxCell id="q6qAJDM0Yv2ca2bz8RKR-10" value="Certification" style="swimlane;" parent="1" vertex="1">
                    <mxGeometry x="600" y="110" width="200" height="140" as="geometry">
                        <mxRectangle x="40" y="60" width="130" height="23" as="alternateBounds"/>
                    </mxGeometry>
                </mxCell>
                <mxCell id="q6qAJDM0Yv2ca2bz8RKR-11" value="category: String" style="text;strokeColor=none;fillColor=none;align=left;verticalAlign=top;spacingLeft=4;spacingRight=4;overflow=hidden;rotatable=0;points=[[0,0.5],[1,0.5]];portConstraint=eastwest;" parent="q6qAJDM0Yv2ca2bz8RKR-10" vertex="1">
                    <mxGeometry y="30" width="200" height="26" as="geometry"/>
                </mxCell>
                <mxCell id="q6qAJDM0Yv2ca2bz8RKR-12" value="platform: String" style="text;strokeColor=none;fillColor=none;align=left;verticalAlign=top;spacingLeft=4;spacingRight=4;overflow=hidden;rotatable=0;points=[[0,0.5],[1,0.5]];portConstraint=eastwest;" parent="q6qAJDM0Yv2ca2bz8RKR-10" vertex="1">
                    <mxGeometry y="56" width="200" height="26" as="geometry"/>
                </mxCell>
                <mxCell id="q6qAJDM0Yv2ca2bz8RKR-13" value="title: String&#10;" style="text;strokeColor=none;fillColor=none;align=left;verticalAlign=top;spacingLeft=4;spacingRight=4;overflow=hidden;rotatable=0;points=[[0,0.5],[1,0.5]];portConstraint=eastwest;" parent="q6qAJDM0Yv2ca2bz8RKR-10" vertex="1">
                    <mxGeometry y="82" width="200" height="26" as="geometry"/>
                </mxCell>
                <mxCell id="q6qAJDM0Yv2ca2bz8RKR-22" value="description: String&#10;" style="text;strokeColor=none;fillColor=none;align=left;verticalAlign=top;spacingLeft=4;spacingRight=4;overflow=hidden;rotatable=0;points=[[0,0.5],[1,0.5]];portConstraint=eastwest;" parent="q6qAJDM0Yv2ca2bz8RKR-10" vertex="1">
                    <mxGeometry y="108" width="200" height="26" as="geometry"/>
                </mxCell>
                <mxCell id="q6qAJDM0Yv2ca2bz8RKR-23" value="" style="endArrow=none;dashed=1;html=1;dashPattern=1 3;strokeWidth=2;exitX=1;exitY=0.5;exitDx=0;exitDy=0;entryX=0;entryY=0.5;entryDx=0;entryDy=0;" parent="1" source="q6qAJDM0Yv2ca2bz8RKR-14" target="q6qAJDM0Yv2ca2bz8RKR-28" edge="1">
                    <mxGeometry width="50" height="50" relative="1" as="geometry">
                        <mxPoint x="270" y="160" as="sourcePoint"/>
                        <mxPoint x="320" y="110" as="targetPoint"/>
                    </mxGeometry>
                </mxCell>
                <mxCell id="q6qAJDM0Yv2ca2bz8RKR-24" value="" style="endArrow=none;dashed=1;html=1;dashPattern=1 3;strokeWidth=2;entryX=0.5;entryY=1;entryDx=0;entryDy=0;" parent="1" source="q6qAJDM0Yv2ca2bz8RKR-6" target="q6qAJDM0Yv2ca2bz8RKR-1" edge="1">
                    <mxGeometry width="50" height="50" relative="1" as="geometry">
                        <mxPoint x="320" y="399" as="sourcePoint"/>
                        <mxPoint x="170" y="400" as="targetPoint"/>
                    </mxGeometry>
                </mxCell>
                <mxCell id="q6qAJDM0Yv2ca2bz8RKR-26" value="UserCertification" style="swimlane;fontStyle=1;childLayout=stackLayout;horizontal=1;startSize=26;horizontalStack=0;resizeParent=1;resizeParentMax=0;resizeLast=0;collapsible=1;marginBottom=0;" parent="1" vertex="1">
                    <mxGeometry x="344" y="40" width="140" height="104" as="geometry"/>
                </mxCell>
                <mxCell id="q6qAJDM0Yv2ca2bz8RKR-27" value="userId: String" style="text;strokeColor=none;fillColor=none;align=left;verticalAlign=top;spacingLeft=4;spacingRight=4;overflow=hidden;rotatable=0;points=[[0,0.5],[1,0.5]];portConstraint=eastwest;" parent="q6qAJDM0Yv2ca2bz8RKR-26" vertex="1">
                    <mxGeometry y="26" width="140" height="26" as="geometry"/>
                </mxCell>
                <mxCell id="q6qAJDM0Yv2ca2bz8RKR-28" value="certificationId: String" style="text;strokeColor=none;fillColor=none;align=left;verticalAlign=top;spacingLeft=4;spacingRight=4;overflow=hidden;rotatable=0;points=[[0,0.5],[1,0.5]];portConstraint=eastwest;" parent="q6qAJDM0Yv2ca2bz8RKR-26" vertex="1">
                    <mxGeometry y="52" width="140" height="26" as="geometry"/>
                </mxCell>
                <mxCell id="q6qAJDM0Yv2ca2bz8RKR-29" value="date: Date" style="text;strokeColor=none;fillColor=none;align=left;verticalAlign=top;spacingLeft=4;spacingRight=4;overflow=hidden;rotatable=0;points=[[0,0.5],[1,0.5]];portConstraint=eastwest;" parent="q6qAJDM0Yv2ca2bz8RKR-26" vertex="1">
                    <mxGeometry y="78" width="140" height="26" as="geometry"/>
                </mxCell>
                <mxCell id="q6qAJDM0Yv2ca2bz8RKR-30" value="" style="endArrow=none;dashed=1;html=1;dashPattern=1 3;strokeWidth=2;exitX=1;exitY=0.5;exitDx=0;exitDy=0;entryX=-0.025;entryY=0.269;entryDx=0;entryDy=0;entryPerimeter=0;" parent="1" source="q6qAJDM0Yv2ca2bz8RKR-28" target="q6qAJDM0Yv2ca2bz8RKR-13" edge="1">
                    <mxGeometry width="50" height="50" relative="1" as="geometry">
                        <mxPoint x="390" y="282" as="sourcePoint"/>
                        <mxPoint x="494" y="180" as="targetPoint"/>
                    </mxGeometry>
                </mxCell>
                <mxCell id="q6qAJDM0Yv2ca2bz8RKR-31" value="Note: This is not final" style="text;strokeColor=none;fillColor=none;align=left;verticalAlign=top;spacingLeft=4;spacingRight=4;overflow=hidden;rotatable=0;points=[[0,0.5],[1,0.5]];portConstraint=eastwest;" parent="1" vertex="1">
                    <mxGeometry x="30" y="10" width="170" height="26" as="geometry"/>
                </mxCell>
            </root>
        </mxGraphModel>
    </diagram>
</mxfile>